# xmcd
#
# Track frame offsets:
#	150
#	20147
#	41962
#	63012
#	85602
#	101522
#	125890
#	146565
#	165097
#	181675
#	202585
#
# Disc length: 2902 seconds
#
# Revision: 0
# Processed by: cddbd v1.4PL0 Copyright (c) Steve Scherf et al.
# Submitted via: audiograbber 1.82.01
#
DISCID=860b540b
DTITLE=Dave Bonney - Dave Bonney - That's The Way It Is
DYEAR=1900
DGENRE=
TTITLE0=Change Of Heart
TTITLE1=That's The Way It Is
TTITLE2=The City
TTITLE3=We Must
TTITLE4=Let's Work Together
TTITLE5=Middle Of The Desert
TTITLE6=Just A While
TTITLE7=Other Side Of The Fence
TTITLE8=Lonely Avenue
TTITLE9=What A Feeling Now
TTITLE10=Special Remix
EXTD=
EXTT0=
EXTT1=
EXTT2=
EXTT3=
EXTT4=
EXTT5=
EXTT6=
EXTT7=
EXTT8=
EXTT9=
EXTT10=
PLAYORDER=
